HIERARCHY
ROOT Hips
{
	OFFSET -14.64140 90.27770 -84.91600
	CHANNELS 6 Xposition Yposition Zposition Zrotation Xrotation Yrotation
	JOINT Spine
	{
		OFFSET 0.00000 13.20850 -1.60436
		CHANNELS 3 Zrotation Xrotation Yrotation
		JOINT Spine1
		{
			OFFSET 0.00000 8.61716 0.00000
			CHANNELS 3 Zrotation Xrotation Yrotation
			JOINT Spine2
			{
				OFFSET 0.00000 8.61717 0.00000
				CHANNELS 3 Zrotation Xrotation Yrotation
				JOINT Spine3
				{
					OFFSET 0.00000 8.61717 0.00000
					CHANNELS 3 Zrotation Xrotation Yrotation
					JOINT Neck
					{
						OFFSET 0.00000 11.07920 1.10792
						CHANNELS 3 Zrotation Xrotation Yrotation
						JOINT Neck1
						{
							OFFSET 0.00000 7.08032 0.00000
							CHANNELS 3 Zrotation Xrotation Yrotation
							JOINT Head
							{
								OFFSET 0.00000 7.08031 0.00000
								CHANNELS 3 Zrotation Xrotation Yrotation
								End site
								{
									OFFSET 0.00000 0.00000 0.00000
								}
							}
						}
					}
					JOINT RightShoulder
					{
						OFFSET -0.01000 7.91373 5.19711
						CHANNELS 3 Zrotation Xrotation Yrotation
						JOINT RightArm
						{
							OFFSET -18.41580 0.00000 0.00000
							CHANNELS 3 Zrotation Xrotation Yrotation
							JOINT RightForeArm
							{
								OFFSET -29.11090 0.00000 0.00000
								CHANNELS 3 Zrotation Xrotation Yrotation
								JOINT RightHand
								{
									OFFSET -24.65040 0.00000 0.00000
									CHANNELS 3 Zrotation Xrotation Yrotation
									JOINT RightHandThumb1
									{
										OFFSET -5.35114 -0.85590 3.97906
										CHANNELS 3 Zrotation Xrotation Yrotation
										JOINT RightHandThumb2
										{
											OFFSET -4.52789 0.00000 0.00000
											CHANNELS 3 Zrotation Xrotation Yrotation
											JOINT RightHandThumb3
											{
												OFFSET -2.46976 0.00000 0.00000
												CHANNELS 3 Zrotation Xrotation Yrotation
												End site
												{
													OFFSET 0.00000 0.00000 0.00000
												}
											}
										}
									}
									JOINT RightHandIndex1
									{
										OFFSET -14.26970 0.00000 2.88139
										CHANNELS 3 Zrotation Xrotation Yrotation
										JOINT RightHandIndex2
										{
											OFFSET -5.48836 0.00000 0.00000
											CHANNELS 3 Zrotation Xrotation Yrotation
											JOINT RightHandIndex3
											{
												OFFSET -3.01859 0.00000 0.00000
												CHANNELS 3 Zrotation Xrotation Yrotation
												End site
												{
													OFFSET 0.00000 0.00000 0.00000
												}
											}
										}
									}
									JOINT RightHandMiddle1
									{
										OFFSET -14.26970 0.00000 -0.09147
										CHANNELS 3 Zrotation Xrotation Yrotation
										JOINT RightHandMiddle2
										{
											OFFSET -6.17441 0.00000 0.00000
											CHANNELS 3 Zrotation Xrotation Yrotation
											JOINT RightHandMiddle3
											{
												OFFSET -3.56743 0.00000 0.00000
												CHANNELS 3 Zrotation Xrotation Yrotation
												End site
												{
													OFFSET 0.00000 0.00000 0.00000
												}
											}
										}
									}
									JOINT RightHandRing1
									{
										OFFSET -12.69180 0.00000 -3.06433
										CHANNELS 3 Zrotation Xrotation Yrotation
										JOINT RightHandRing2
										{
											OFFSET -5.62556 0.00000 0.00000
											CHANNELS 3 Zrotation Xrotation Yrotation
											JOINT RightHandRing3
											{
												OFFSET -3.56744 0.00000 0.00000
												CHANNELS 3 Zrotation Xrotation Yrotation
												End site
												{
													OFFSET 0.00000 0.00000 0.00000
												}
											}
										}
									}
									JOINT RightHandPinky1
									{
										OFFSET -11.11390 0.00000 -6.03719
										CHANNELS 3 Zrotation Xrotation Yrotation
										JOINT RightHandPinky2
										{
											OFFSET -4.52789 0.00000 0.00000
											CHANNELS 3 Zrotation Xrotation Yrotation
											JOINT RightHandPinky3
											{
												OFFSET -2.46976 0.00000 0.00000
												CHANNELS 3 Zrotation Xrotation Yrotation
												End site
												{
													OFFSET 0.00000 0.00000 0.00000
												}
											}
										}
									}
								}
							}
						}
					}
					JOINT LeftShoulder
					{
						OFFSET 0.01000 7.91373 5.19711
						CHANNELS 3 Zrotation Xrotation Yrotation
						JOINT LeftArm
						{
							OFFSET 18.41580 0.00000 0.00000
							CHANNELS 3 Zrotation Xrotation Yrotation
							JOINT LeftForeArm
							{
								OFFSET 29.11090 0.00000 0.00000
								CHANNELS 3 Zrotation Xrotation Yrotation
								JOINT LeftHand
								{
									OFFSET 24.65040 0.00000 0.00000
									CHANNELS 3 Zrotation Xrotation Yrotation
									JOINT LeftHandThumb1
									{
										OFFSET 5.35114 -0.85590 3.97906
										CHANNELS 3 Zrotation Xrotation Yrotation
										JOINT LeftHandThumb2
										{
											OFFSET 4.52789 0.00000 0.00000
											CHANNELS 3 Zrotation Xrotation Yrotation
											JOINT LeftHandThumb3
											{
												OFFSET 2.46977 0.00000 0.00000
												CHANNELS 3 Zrotation Xrotation Yrotation
												End site
												{
													OFFSET 0.00000 0.00000 0.00000
												}
											}
										}
									}
									JOINT LeftHandIndex1
									{
										OFFSET 14.26970 0.00000 2.88139
										CHANNELS 3 Zrotation Xrotation Yrotation
										JOINT LeftHandIndex2
										{
											OFFSET 5.48836 0.00000 0.00000
											CHANNELS 3 Zrotation Xrotation Yrotation
											JOINT LeftHandIndex3
											{
												OFFSET 3.01859 0.00000 0.00000
												CHANNELS 3 Zrotation Xrotation Yrotation
												End site
												{
													OFFSET 0.00000 0.00000 0.00000
												}
											}
										}
									}
									JOINT LeftHandMiddle1
									{
										OFFSET 14.26970 0.00000 -0.09147
										CHANNELS 3 Zrotation Xrotation Yrotation
										JOINT LeftHandMiddle2
										{
											OFFSET 6.17440 0.00000 0.00000
											CHANNELS 3 Zrotation Xrotation Yrotation
											JOINT LeftHandMiddle3
											{
												OFFSET 3.56744 0.00000 0.00000
												CHANNELS 3 Zrotation Xrotation Yrotation
												End site
												{
													OFFSET 0.00000 0.00000 0.00000
												}
											}
										}
									}
									JOINT LeftHandRing1
									{
										OFFSET 12.69180 0.00000 -3.06433
										CHANNELS 3 Zrotation Xrotation Yrotation
										JOINT LeftHandRing2
										{
											OFFSET 5.62556 0.00000 0.00000
											CHANNELS 3 Zrotation Xrotation Yrotation
											JOINT LeftHandRing3
											{
												OFFSET 3.56744 0.00000 0.00000
												CHANNELS 3 Zrotation Xrotation Yrotation
												End site
												{
													OFFSET 0.00000 0.00000 0.00000
												}
											}
										}
									}
									JOINT LeftHandPinky1
									{
										OFFSET 11.11390 0.00000 -6.03719
										CHANNELS 3 Zrotation Xrotation Yrotation
										JOINT LeftHandPinky2
										{
											OFFSET 4.52789 0.00000 0.00000
											CHANNELS 3 Zrotation Xrotation Yrotation
											JOINT LeftHandPinky3
											{
												OFFSET 2.46976 0.00000 0.00000
												CHANNELS 3 Zrotation Xrotation Yrotation
												End site
												{
													OFFSET 0.00000 0.00000 0.00000
												}
											}
										}
									}
								}
							}
						}
					}
					JOINT pCube4
					{
						OFFSET 0.00000 10.91090 1.10792
						CHANNELS 3 Zrotation Xrotation Yrotation
						End site
						{
							OFFSET 0.00000 0.00000 0.00000
						}
					}
				}
			}
		}
	}
	JOINT RightUpLeg
	{
		OFFSET -9.98441 0.00000 0.00000
		CHANNELS 3 Zrotation Xrotation Yrotation
		JOINT RightLeg
		{
			OFFSET 0.00000 -42.11790 0.00000
			CHANNELS 3 Zrotation Xrotation Yrotation
			JOINT RightFoot
			{
				OFFSET 0.00000 -45.00020 -0.00001
				CHANNELS 3 Zrotation Xrotation Yrotation
				JOINT RightForeFoot
				{
					OFFSET 0.00000 -3.74820 0.00000
					CHANNELS 3 Zrotation Xrotation Yrotation
					JOINT RightToeBase
					{
						OFFSET 0.00000 0.06325 14.43120
						CHANNELS 3 Zrotation Xrotation Yrotation
						End site
						{
							OFFSET 0.00000 0.00000 0.00000
						}
					}
				}
			}
		}
	}
	JOINT LeftUpLeg
	{
		OFFSET 9.98441 0.00000 0.00000
		CHANNELS 3 Zrotation Xrotation Yrotation
		JOINT LeftLeg
		{
			OFFSET 0.00000 -42.11800 0.00000
			CHANNELS 3 Zrotation Xrotation Yrotation
			JOINT LeftFoot
			{
				OFFSET 0.00000 -45.00070 0.00000
				CHANNELS 3 Zrotation Xrotation Yrotation
				JOINT LeftForeFoot
				{
					OFFSET 0.00000 -3.74824 0.00000
					CHANNELS 3 Zrotation Xrotation Yrotation
					JOINT LeftToeBase
					{
						OFFSET 0.00000 0.06325 14.43110
						CHANNELS 3 Zrotation Xrotation Yrotation
						End site
						{
							OFFSET 0.00000 0.00000 0.00000
						}
					}
				}
			}
		}
	}
}
MOTION
Frames: 4
Frame Time: 0.050000
0.025907708758854276 -0.036211468435721185 0.016575510410420487 0.01901663414402864 -0.0013691488343317137 -0.022421524545809462 3.495700774427818 3.4623694688226796 -1.9449688594027799 -0.8697289293926432 3.516004398679915 0.4273677897895033 -0.6817016769489181 -0.8159335505263775 -0.2833666529878206 -0.10413096486291125 0.0154384853822086 -0.535818507500388 -0.05767214211992662 11.849009342088992 -0.8508758180907654 0.3538863313293148 -0.37917073218146474 -1.6259363150180588 0.683319181784722 -16.40301668919197 -0.15246082182386958 -7.636892456610858 2.9871711746005065 -16.143660660460306 77.63768372949404 5.611226711787532 9.854412867260429 5.992488854605868 1.4631917071904754 96.85320524095054 3.433527376811187 0.0510889214208243 -0.009997560379739232 4.528661366486538 -0.1469256164438876 -1.589309716756356 0.042868801601127375 -0.029308063142421965 -56.19081499447467 0.004287135753421777 -0.014818246653914836 -56.199197182368415 -38.785591644558046 -0.01913387608572646 0.03261333619868154 -0.01257978113657455 0.0021075405996291464 -0.036325297162225156 -0.04057898442489089 -0.009950264553790488 -0.020074080925039595 -36.64994545601724 0.022006225114390196 -0.04659363835188814 -0.0347548883627417 -0.004552951141329098 0.008275323525775159 -0.02727761029488016 0.0008527030957464717 -0.018311454847495776 -19.767264014505525 -0.0099555545647914 -0.04937259117257658 -0.023023387427605593 -0.04003665499054757 -0.0010400460655775319 0.016527238591282387 0.016594196746384272 0.011313561428439535 24.038821976279387 0.0018055908760412724 -0.04244177314560896 28.85547602322122 0.0028662608810726014 -0.02003405349738476 28.8970723825144 -0.014386775968576928 0.04010449472128451 8.718596766615734 2.2130112137327744 12.961444156812048 -72.4038574615721 27.27874183689455 -18.12363708878624 -17.944383424634196 1.494234169536029 -90.86441366891935 -10.422863730301133 -7.076784401378883 3.453304721645528 -0.4862610983047295 0.04579406667291358 -8.10899652008719 -0.008005025739325551 -0.036264317524259945 44.60445805915947 -0.0332464298005179 0.016254936016129085 44.524696378147304 12.410966649043448 0.006217908484902112 -0.03616759810436357 -0.031043577330051895 -0.027395765351019456 0.04540626740472747 -0.01494099394083991 -0.045118616494562364 0.020012590570454826 11.122030935868345 0.042547358179471494 0.0018388340566924603 -0.006230993966240047 0.03667050563877953 0.019401654126661005 0.04511200177337032 0.02466490354374355 -0.0082859522965393 4.759673572785642 -0.03898451790505471 0.0471646242320586 -0.007732196235854316 -0.023491123738683655 -0.04278641946348256 -0.029989853993459104 -0.015008836925423246 -0.03017138128094326 -5.57311018112661 0.007287245393062037 0.03912654408665824 -6.749199439885547 0.022959530340376833 0.03364005266401174 -6.682719438727667 0.04632841255642891 -0.023798718223434594 0.04921398712877944 -0.031277434306855006 0.008926584910852136 8.086650520109751 3.5247384165861497 -19.243841351130847 0.04042977616362521 10.406391764961366 0.00018207643190048216 -5.610668377194949 -15.70635001767096 3.158209298169161 -0.026604323241201218 0.028158258175758174 -0.027776407929764983 -0.014247272158217611 4.680996594527042 0.0030959844545064776 12.431957246855799 -8.24720632633325 6.856365695067475 -0.026056888298476823 46.409881445622815 0.001549325121997507 -4.345571783985702 -14.70576266941394 -3.8031453979208476 0.020772766096282765 -0.019935663627435474 -0.0028735910923481495 -0.028286856814324985 -10.731998714269684 0.020508932086358324 
-0.014135682939712452 0.02996174944964135 -0.0464141937248301 -0.027770966495103373 0.007576437086872109 0.014247682584330346 3.2147550035059504 3.5949358589824736 -1.9335493550938165 -0.805696793552265 3.4964498129680988 0.41940889090328837 -0.6861468683539769 -0.7897189238720917 -0.3205238952452477 -0.11477034147070958 0.0027148607538965072 -0.4812172435199756 -0.12090033962640113 11.631531149555814 -0.7008103779039454 0.3275960828603816 -0.41092707024722874 -1.4617318663040941 0.5729834278332718 -16.418927484704977 -0.17345453470331978 -7.185657600147587 2.9417861172043915 -15.973283615922163 77.32710407744403 5.6018379540547505 8.378975956038811 7.973433518980752 2.4933962373876626 95.99139344882082 3.9777569730874855 -0.0046232402978837114 -0.4738144857742549 4.516543425908858 -0.12413280158625747 -1.6380481760842411 0.00038219982353002277 0.013410857228788358 -56.24108595341575 -0.03233533952405459 0.0028746946562802837 -56.27163211120296 -38.743467060266 0.015272990040613405 0.015070528475717758 -0.0020538133500620543 -0.04427342653815166 0.025116770244115447 0.003814473259835638 0.04646946683583522 -0.039923822682410876 -36.675440719385946 0.004984448593530738 0.0025621459953051725 -0.02072400167101635 0.03505407968894885 0.045001810961690494 -0.017758164680956774 0.01658204831306109 0.015604413361176942 -19.806656277573627 0.03596333890706421 -0.03509037729356078 -0.04792617493175016 -0.005015519860270711 0.042415425939870896 -0.023184720235926375 0.0432302039443374 -0.029350211917582737 24.07553686739488 0.021628613859737765 -0.023458160182780775 28.821374352930476 0.04547717323086426 0.025242781871089862 28.902262510537852 0.03745531309036529 -0.029242080969701694 8.449047232856765 2.1802927055032013 12.915935236484387 -72.22826097116528 27.11440327066861 -17.306435607588174 -22.51356920562901 3.4310622388631287 -90.70369807649844 -11.928964855344063 -8.064095409839199 4.317292403542833 -0.5068831744464544 0.0916613834156399 -8.126971056982322 -0.02450437568375405 0.013655488050095718 44.58953760542772 -0.005208632087234476 0.00402312315380078 44.58848212022523 12.488692258288767 0.028174282423910096 -0.02234355816656952 0.048549410130386654 0.04199222164266114 0.005426204207775972 0.031973338957270114 0.01986616882149795 0.02508753993381063 11.089863885285983 -0.036146119167318295 0.039456132657018105 0.042499028513883146 -0.003684302391954324 -0.030571290782094807 0.03567726392009354 0.04904604809584332 -0.0110343610886313 4.78472656984427 0.011655492339090611 0.04573914099301021 0.0013576136722105293 -0.007065592462912864 0.013483862392039428 -0.018912371584286262 0.040650824612171385 0.02927413154840152 -5.634506149509008 -0.02628505905601181 -0.01940744900661882 -6.714007453645396 0.0007287495080759161 0.039265061586417495 -6.746149860389449 0.03440179326428568 0.008203898270705647 0.0004488629212835939 -0.045708728500564906 0.00439108756076862 8.088586102634547 3.4722638388803717 -19.260267067031442 -0.03364608869435719 10.410256476798946 0.020009521978463767 -5.612125470952243 -15.684445828729839 3.181642135099205 -0.04758713243394554 -0.00021485189549096977 0.0351764877086375 -0.01522391224436351 4.747141013922505 0.025071191278579704 12.428311686679821 -8.26288431974026 6.885644876045033 0.015821342768670938 46.39779569457788 -0.024374611287885033 -4.3412842385800925 -14.724044506354081 -3.864292545544716 -0.048846504666425324 -0.013636830662651114 0.026527127735551485 -0.04129856660764731 -10.792929488916636 0.046868869708979355 
0.007718410109553687 -0.009496455021379087 -0.03499877249448665 -0.02323805465969553 -0.01512705493590421 0.03084113840436698 3.068185394508363 3.7730860484771154 -1.8052572735551298 -0.8737142594614231 3.525336418742313 0.3904564575312725 -0.7254902361311144 -0.7752977479128812 -0.27894130518597227 -0.17738908552306754 0.0029512792826457863 -0.5486346079988484 -0.20315504188678063 11.499167544994652 -0.6864179158858752 0.23726548637107958 -0.5368030707241955 -1.3495402674888468 0.5291160801672401 -16.437242299761376 -0.10558454406140066 -6.816060566640452 2.8430781894311603 -15.935867718093286 77.21608227640594 5.5583054206166045 6.475987088060298 10.343736746775624 3.6803536409822755 93.24807886646283 4.980809022099879 -0.10347648098216027 -1.055205592940372 4.4926282828428015 -0.13593759187064847 -1.6213706992764347 -0.03700724014565529 -0.0021149546461932843 -56.21982486021892 -0.026759962397053843 0.008558501450040152 -56.21151919939393 -38.754865970086385 0.010538533040842499 -0.04693383460083419 0.04228640338241664 -0.011087218959431594 -0.03386774341850943 -0.01328550382098242 -0.011739756206740481 -0.03947522805670591 -36.65862045963837 0.048509720951013725 -0.011661295393831029 -0.0430219164633037 0.03446642209162139 -0.02781137377792582 -0.01716168785837383 -0.03677089621142602 -0.020799655254763152 -19.7167668857297 0.013592220428355518 0.018542683794088723 0.020712372184715947 0.009552304832921724 -0.01957902822174463 0.0016612050698360519 0.010499518973029021 0.02991201985280877 24.054279383891895 -0.009179895342993271 -0.028475598001345564 28.819465057655073 -0.01624260964148777 0.04633772856270759 28.870988570048556 0.04659472555220765 0.0009772865265311609 8.125750572519784 2.0741454255115266 12.974458902974431 -72.2595322127255 26.538268730436798 -16.008348170788853 -27.056081493859775 5.164493500576214 -89.47111825895426 -13.02703466953763 -8.418883324416612 4.81263823301851 -0.461830628142175 0.056507120761645935 -8.124921177458425 0.009698812595169195 0.04174672264790419 44.52854126411186 0.04879500169534614 -0.029522717375132408 44.60719492393192 12.471497290298542 -0.002418686400939361 0.013354989699050251 -0.0045077553298153725 0.04279135894716947 0.03211836075942806 0.0104199171743482 -0.02725379964456945 0.04243167430829263 11.131361265803942 -0.019827982036015847 -0.02804525198175059 -0.000915215976468114 -0.029377226078097413 -0.037413602810575625 0.01438719235172244 0.007859346696707242 -0.0149968836669229 4.726176467221227 0.018305619638003673 0.008532865245757736 0.04392094317665302 0.031974937372338016 0.0397361295807656 -0.0016421406201658384 0.008854290089851967 0.0171182235506167 -5.57961340687948 0.049663855849654985 -0.02903603554157069 -6.681512395295491 0.0013750572985702782 0.002325309984093149 -6.7399113511423625 -0.02335111161714077 -0.02778188723029651 -0.006240434774372676 0.03746840645011419 0.014250528420689534 8.053048984912213 3.5008961280020574 -19.214612141188915 -0.04819141576843181 10.42216442309967 0.005597380857869183 -5.636631197346231 -15.655239956755588 3.231259517936131 -0.040128800494165034 0.008324659366034414 -0.019035397341919592 0.04387331807999325 4.701369683557965 0.006670315593600317 12.499295404863 -8.234413521639276 6.8565887998669455 -0.015672539050825968 46.34052591745587 -0.015368121911068674 -4.341233787648873 -14.788002545060433 -3.8294253727401735 -0.03337414912284956 -0.02066677751800139 0.029879003158064382 -0.010557756257608226 -10.695907189139271 -0.04946853317635436 
0.023662032321597103 0.03265499625200749 0.0024517678405028814 -0.013873971735349037 -0.003674030316449377 0.002398885934996015 2.957635352053544 3.862371424501389 -1.8346655692246376 -0.8750792908734217 3.5315646334331348 0.40717390552541183 -0.6771900776861385 -0.7267835063259427 -0.25537232883655947 -0.1640110973545649 -0.04087422153045884 -0.48116894536022237 -0.200257110054504 11.292779197050638 -0.5881459414440621 0.2014864064013006 -0.5711129828376036 -1.3632530327582577 0.5013994091753587 -16.47653544309687 -0.09706429577778435 -6.588392260957454 2.7672245372349185 -15.923356221513542 77.36703804262743 5.64662371824395 4.979480823326394 12.232258558791502 4.820232377633542 89.81880671363515 6.3480129871628534 -0.17621765223585542 -1.5360165514047184 4.548697737453311 -0.14069067843415958 -1.5500925659830491 -0.03799321618308688 -0.03356287717807598 -56.20657513192851 -0.04536002118939859 0.019140578706274704 -56.26786487227725 -38.766903432959275 0.02903696166311358 -0.008127229286482896 -0.00553431381214129 0.036376598440338956 -0.033630236026908636 0.005874638413831054 -0.0016806440368614076 0.01941177518172911 -36.681985046848176 -0.04894078552193351 -0.023686507370142863 0.023474087706735966 -0.01941653011545728 -0.005664228899523703 -0.03744484748184369 0.04591033505587553 -0.01141951566396735 -19.733669267506624 -0.025208279973930398 -0.02752779786664269 -0.02345076490986341 0.019632374206706774 -0.01454544368961327 -0.008381922415696531 0.011817079958231877 0.0001985501438311177 24.01977199081264 0.03425202552829853 0.034858231782539884 28.838215924967166 -0.04526942718249558 -0.01805235165061257 28.858538219187473 0.04626294685637174 -0.012997453028455029 7.905133557593066 2.092618423608908 12.961687522823672 -72.36834052192202 26.127640468559544 -14.864776841293418 -30.370585536138975 6.385745541551963 -87.67141322017316 -13.996007583779258 -8.28519682671214 5.039953076531056 -0.5073508866916143 0.02913196399608245 -8.1328068032797 0.048207263235018394 -0.02165465052625027 44.616120732286085 -0.03770105639246521 -0.02607552311471855 44.59548369219867 12.462339639414113 -0.01777030929635028 0.0038414441725997837 -0.01627805623100823 -0.007196114137161797 0.015900342518459495 -0.017147618306689885 0.019534112465025556 -0.0327280735818798 11.063183178601482 0.021689350223019457 -0.04308986714477032 -0.02320703214556007 -0.00783001807601714 -0.004557993164268772 0.005124117498022238 -0.0006971796255808915 0.007764128843927067 4.787251979978067 -0.0497641660996252 -0.023340724715026084 -0.015918564172192153 -0.01344869053145225 -0.02863732759475363 -0.047924244335586 -0.03445110863478112 0.03691239015633339 -5.624297882951115 -0.009749006541991468 -0.023327592883901974 -6.7366175820816485 -0.006243901622321272 -0.028377397974249614 -6.702939181196146 0.010113256606846572 0.013880441893093844 0.02225475890396878 0.024851518930918987 -0.002611588067796323 8.051032697049324 3.4741269231158567 -19.24700789300318 -0.020342836627162488 10.428413343180388 -0.0011371611350886636 -5.586293394176645 -15.61002229281836 3.2331526411802805 -0.0460540905207211 0.016881636573601616 0.02094700152472702 -0.02451887989343891 4.7091091318248495 0.015117580419656027 12.415869780320314 -8.24656780198254 6.912859829482018 0.00941004198012958 46.36993932448458 -0.024928185025009708 -4.345758147758932 -14.736277793221936 -3.8046166553953533 0.0011489171662271579 0.018426891527376983 0.005795571227699925 -0.01685586397116883 -10.768349606280685 0.0012401812151358667 
